<?xml version="1.0" encoding="utf-8"?>
<!-- Generator: Adobe Illustrator 16.0.3, SVG Export Plug-In . SVG Version: 6.00 Build 0)  -->
<!DOCTYPE svg PUBLIC "-//W3C//DTD SVG 1.1//EN" "http://www.w3.org/Graphics/SVG/1.1/DTD/svg11.dtd">
<svg version="1.1" id="Layer_1" xmlns="http://www.w3.org/2000/svg" xmlns:xlink="http://www.w3.org/1999/xlink" x="0px" y="0px"
	 width="164.943px" height="182.602px" viewBox="23.816 9.979 164.943 182.602"
	 enable-background="new 23.816 9.979 164.943 182.602" xml:space="preserve">
<g>
	<path fill="none" d="M171.657,44.748c-8.413-3.051-15.629-9.031-20.167-16.776c-1.659-2.832-2.851-5.703-3.66-8.616
		c-4.498-1.133-8.703-3.072-12.445-5.654c-4.385-1.048-8.816-1.916-13.266-2.615c-6.645-0.762-13.421-1.268-20.112-1.062
		c-6.074,3.314-13.095,4.955-20.072,4.828c-1.754,0.606-3.497,1.243-5.226,1.908c-8.76,4.072-17.107,8.901-24.974,14.505
		c-5.87,4.893-11.325,10.218-16.273,16.042c-0.136,0.192-0.28,0.379-0.418,0.571c-4.323,11.388-8.529,22.612-10.819,34.654
		c-0.541,6.609-0.546,13.207-0.007,19.813c1.216,6.412,2.977,12.597,5.271,18.71c5.504,11.908,12.312,23.177,20.068,33.756
		c6.7,8.187,14.031,15.826,22.137,22.622c4.516,3.192,9.225,6.066,14.173,8.524c2.569,0.884,5.174,1.628,7.823,2.224
		c1.417,0.064,2.834,0.082,4.254,0.053c1.248-0.127,2.512-0.197,3.789-0.197c6.791-0.59,13.221,1.199,18.816,4.542
		c4.937-7.789,12.545-13.842,21.949-16.167c3.229-0.798,6.401-1.75,9.526-2.852c2.871-1.442,5.645-3.047,8.32-4.825
		c2.26-2.024,4.387-4.179,6.396-6.451c2.719-4.03,5.098-8.262,7.193-12.65c5.399-14.477,8.37-29.738,10.585-45.016
		c1.539-12.393,2.756-24.871,4.242-37.304C180.555,62.243,174.321,54.183,171.657,44.748z M160.197,130.032
		c-8.173,9.888-14.559,20.62-21.84,30.924c-18.514,26.199-46.633,25.46-63.696-1.732c-6.082-9.693-12.627-18.688-19.982-27.538
		c-18.169-21.85-7.507-83.505,15.653-99.952c12.764-9.059,27.086-10.315,41.925-10.061c39.105,0.263,51.221,12.599,50.218,52.169
		c-0.154,6.082,1.533,10.912,3.6,16.319C171.487,104.328,169.164,119.18,160.197,130.032z"/>
	<path fill="#50237F" d="M112.255,21.67c39.107,0.266,51.223,12.603,50.22,52.173c-0.154,6.082,1.533,10.912,3.6,16.319
		c5.413,14.166,3.09,29.019-5.877,39.87c-8.173,9.888-14.559,20.62-21.84,30.924c-18.514,26.199-46.633,25.46-63.696-1.732
		c-6.082-9.693-12.627-18.688-19.982-27.538c-18.169-21.85-7.507-83.505,15.653-99.952C83.096,22.675,97.417,21.418,112.255,21.67z
		 M85.368,57.134C75,54.131,73.031,60.647,71.893,68.338c-1.672,11.29-0.523,30.354-5.804,32.363
		c-15.334,5.831-9.577,14.823-4.584,19.611c10.064,9.652,14.667,22.101,22.031,33.061c14.783,22.007,34.27,21.313,48.209-1.511
		c6.573-10.766,10.537-22.802,20.981-31.471c6.382-5.302,3.607-11.238-4.458-17.755c-2.115-1.71-3.041-5.43-3.635-8.399
		c-6.339-31.651-6.297-31.568-38.687-34.077C98.96,59.617,92.046,58.139,85.368,57.134z"/>
	<path fill="none" d="M85.368,57.134c6.678,1.005,13.593,2.482,20.579,3.026c32.39,2.509,32.348,2.426,38.687,34.077
		c0.595,2.97,1.521,6.689,3.635,8.399c8.066,6.517,10.841,12.453,4.458,17.755c-10.445,8.669-14.408,20.706-20.981,31.471
		c-13.939,22.824-33.426,23.518-48.209,1.511c-7.364-10.96-11.967-23.409-22.031-33.061c-4.993-4.788-10.75-13.78,4.584-19.611
		c5.281-2.01,4.132-21.073,5.804-32.363C73.031,60.647,75,54.131,85.368,57.134z"/>
</g>
</svg>
