<?xml version="1.0" encoding="utf-8"?>
<!-- Generator: Adobe Illustrator 16.0.3, SVG Export Plug-In . SVG Version: 6.00 Build 0)  -->
<!DOCTYPE svg PUBLIC "-//W3C//DTD SVG 1.1//EN" "http://www.w3.org/Graphics/SVG/1.1/DTD/svg11.dtd">
<svg version="1.1" id="Layer_1" xmlns="http://www.w3.org/2000/svg" xmlns:xlink="http://www.w3.org/1999/xlink" x="0px" y="0px"
	 width="135px" height="171.259px" viewBox="-272.029 -12.199 135 171.259" enable-background="new -272.029 -12.199 135 171.259"
	 xml:space="preserve">
<g>
	<path fill="none" d="M-158.771,144.582c2.871-1.441,5.645-3.047,8.318-4.825c2.262-2.023,4.389-4.179,6.396-6.45
		c2.622-3.887,4.922-7.966,6.962-12.188c0.04-2.104,0.061-4.21,0.065-6.318c0.001-0.773,0.149-1.452,0.404-2.04
		c-0.08-0.205-0.167-0.403-0.225-0.631c-1.234-3.735-2.04-7.386-2.179-11.329c-0.083-2.345,1.176-3.828,2.824-4.466
		c0.04-0.495,0.087-0.99,0.128-1.485c0.034-2.014,0.047-4.03,0.048-6.049c0-1.184,0.306-2.137,0.801-2.879
		c0.008-0.08,0.017-0.161,0.025-0.241c-0.935-3.917-1.688-7.83-1.826-11.879c-0.012-0.337,0.014-0.657,0.066-0.962
		c-0.928-0.603-1.64-1.506-1.888-2.709c-3.729-18.075-6.87-37.803-5.86-56.911c-6.003-3.34-11.097-8.255-14.596-14.226
		c-1.639-2.799-2.819-5.638-3.629-8.516c-4.945-0.214-9.919-0.821-14.875-1.564c-11.063,0.771-22.128,1.354-33.219,0.888
		c-7.769-0.327-15.546-0.836-23.327-1.29c-1.568,0.731-3.136,1.276-4.707,1.7c-6.955,3.528-13.636,7.544-19.998,12.076
		c-2.955,2.463-5.784,5.058-8.512,7.753c0.073,4.488-0.062,8.983-0.31,13.483c0.808,10.348-0.294,20.6-2.315,30.794
		c0.229,4.123,0.467,8.245,0.671,12.369c0.349,5.368,0.484,10.752,0.498,16.115c0.003,1.26-0.39,2.256-1.001,3.022
		c-0.001,8.956-0.013,17.913-0.077,26.868c2.792,4.487,5.742,8.877,8.868,13.142c6.699,8.188,14.03,15.826,22.137,22.622
		c3.831,2.708,7.811,5.169,11.948,7.359c14.493-0.118,28.986-0.222,43.473-0.073c4.274-3.911,9.473-6.846,15.382-8.307
		C-165.068,146.637-161.896,145.685-158.771,144.582z M-236.135,130.245c-6.082-9.692-12.627-18.688-19.981-27.538
		c-18.17-21.85-7.508-83.505,15.652-99.952c12.765-9.059,27.086-10.314,41.925-10.061c39.105,0.263,51.221,12.599,50.219,52.169
		c-0.154,6.082,1.531,10.912,3.6,16.319c5.412,14.167,3.088,29.019-5.879,39.871c-8.172,9.888-14.559,20.619-21.84,30.924
		C-190.952,158.177-219.071,157.438-236.135,130.245z"/>
	<path fill="#50237F" d="M-198.54-7.308c39.107,0.266,51.223,12.603,50.221,52.173c-0.154,6.082,1.531,10.912,3.6,16.319
		c5.412,14.166,3.09,29.019-5.877,39.87c-8.174,9.888-14.559,20.619-21.84,30.924c-18.514,26.199-46.633,25.46-63.697-1.732
		c-6.082-9.692-12.627-18.688-19.981-27.538c-18.169-21.85-7.508-83.505,15.652-99.952C-227.699-6.303-213.379-7.56-198.54-7.308z
		 M-225.427,28.156c-10.368-3.003-12.337,3.513-13.475,11.204c-1.672,11.29-0.523,30.354-5.805,32.363
		c-15.334,5.831-9.576,14.822-4.584,19.61c10.064,9.652,14.667,22.102,22.031,33.062c14.783,22.007,34.27,21.313,48.209-1.512
		c6.572-10.766,10.537-22.802,20.98-31.471c6.383-5.302,3.607-11.238-4.457-17.755c-2.115-1.71-3.041-5.43-3.637-8.399
		c-6.338-31.65-6.297-31.567-38.686-34.076C-211.836,30.639-218.75,29.16-225.427,28.156z"/>
	<path fill="none" d="M-225.427,28.156c6.678,1.005,13.593,2.482,20.579,3.026c32.391,2.509,32.348,2.426,38.688,34.076
		c0.596,2.971,1.521,6.689,3.635,8.399c8.066,6.517,10.842,12.453,4.459,17.755c-10.445,8.669-14.408,20.706-20.982,31.471
		c-13.938,22.824-33.425,23.519-48.208,1.512c-7.364-10.96-11.967-23.409-22.031-33.062c-4.992-4.788-10.75-13.779,4.584-19.61
		c5.281-2.011,4.133-21.073,5.805-32.363C-237.764,31.668-235.796,25.153-225.427,28.156z"/>
</g>
</svg>
