<?xml version="1.0" encoding="utf-8"?>
<!-- Generator: Adobe Illustrator 16.0.3, SVG Export Plug-In . SVG Version: 6.00 Build 0)  -->
<!DOCTYPE svg PUBLIC "-//W3C//DTD SVG 1.1//EN" "http://www.w3.org/Graphics/SVG/1.1/DTD/svg11.dtd">
<svg version="1.1" id="Layer_1" xmlns="http://www.w3.org/2000/svg" xmlns:xlink="http://www.w3.org/1999/xlink" x="0px" y="0px"
	 width="117.175px" height="157.938px" viewBox="44.817 22.11 117.175 157.938"
	 enable-background="new 44.817 22.11 117.175 157.938" xml:space="preserve">
<g>
	<path fill="#B90276" d="M45.044,114.234c-0.575-17.919-0.401-35.835,4.714-53.223c6.997-23.792,26.298-39.84,46.421-38.858
		c41.361,2.018,55.244,12.052,62.016,43.497c5.731,26.611,3.208,53.456,3.438,80.229c0.051,5.842-0.806,13.96-7.214,13.967
		c-16.159,0.012-26.609,10.912-39.424,17.357c-9.343,4.695-18.94,3.315-27.428-2.197c-10.1-6.558-19.007-14.56-32.506-14.252
		c-7.778,0.18-9.883-7.046-9.978-13.931C44.934,135.96,45.044,125.097,45.044,114.234z M140.965,105.04
		c-0.995-7.957,2.45-16.907-5.298-21.842c-6.875-4.379-17.371-11.718-22.013-9.363C99.135,81.199,82.6,80.704,68.626,88.256
		c-1.641,0.885-2.48,4.478-2.556,6.847c-0.689,22.146,2.535,43.542,16.521,61.513c12.548,16.124,28.813,15.764,41.835-0.135
		C136.801,141.378,139.149,122.982,140.965,105.04z"/>
</g>
</svg>
